<svg width="178" height="155" viewBox="0 0 178 155" fill="none" xmlns="http://www.w3.org/2000/svg">
<path d="M177.511 63.7599C176.906 60.9318 175.176 58.7458 172.996 58.0561C171.642 57.6291 170.187 57.8189 168.906 57.9834C168.694 58.0119 168.485 58.0372 168.28 58.0625C168.02 58.0941 167.754 58.1416 167.463 58.208C167.517 58.0593 167.561 57.917 167.603 57.7746L167.742 57.3064C168.09 56.1264 168.454 54.9085 168.476 53.6083C168.514 51.5931 167.849 49.9671 166.562 48.9073C165.119 47.721 163.063 47.3762 160.614 47.9108C160.368 47.9646 160.121 48.0215 159.865 48.0816C159.969 47.6324 160.064 47.2053 160.159 46.7719C160.741 44.0576 160.282 42.071 158.792 40.872L158.773 40.8499C158.742 40.8119 158.549 40.6031 158.043 40.3848L157.992 40.3563C157.932 40.3247 157.872 40.2931 157.808 40.2646C157.033 39.9103 156.217 39.8375 155.613 39.8154C155.417 39.7932 155.211 39.7743 154.99 39.7616C154.256 39.7141 153.648 39.6667 153.152 39.6256C153.958 39.4389 154.756 39.2206 155.54 39.0087C156.685 38.6955 157.869 38.3728 159.03 38.1672C161.019 37.8129 163.057 37.0979 164.914 36.0951C165.999 35.5098 166.726 34.5861 166.964 33.501C167.198 32.4286 166.929 31.3087 166.204 30.347C164.879 28.5881 163.044 27.1645 161.782 26.2439C161.598 26.1111 161.045 25.7093 161.048 25.4784C161.048 25.2886 161.45 24.9975 161.794 24.7634C162.101 24.5546 162.408 24.349 162.718 24.1434C164.436 22.995 166.214 21.8056 167.717 20.3662C170.659 17.5506 170.908 13.824 168.387 10.398C166.903 8.37964 164.705 7.12689 162.193 6.86432C159.517 6.58593 156.774 7.50335 154.67 9.38247C154.136 9.86016 153.633 10.3473 153.047 10.9136C152.858 11.0971 152.661 11.2869 152.453 11.4862C152.336 11.0117 152.225 10.5498 152.117 10.1038C151.826 8.88897 151.551 7.74061 151.216 6.62073C150.017 2.61257 146.42 0.0469705 142.462 0.375975C138.739 0.685998 135.075 4.15003 134.294 8.09808C134.218 8.48086 134.079 8.85732 133.902 9.33501C133.854 9.46472 133.804 9.60075 133.753 9.74311C130.988 6.21264 128.363 2.89729 123.532 4.5866C119.074 6.14621 116.306 9.57861 115.731 14.2543C115.041 19.8853 119.084 22.1219 123.434 23.8428C123.023 24.1497 122.618 24.4439 122.219 24.735C121.077 25.567 119.995 26.3547 118.983 27.2373C116.708 29.2176 115.721 31.8022 116.202 34.5102C116.613 36.8227 117.806 38.7018 119.761 40.1096L120.561 40.8182C119.862 41.1535 119.248 41.4604 118.651 41.8052C116.528 43.02 115.398 44.8485 115.474 46.9554C115.563 49.4577 116.996 51.4855 119.736 52.9851C119.976 53.1179 120.207 53.2887 120.476 53.488C120.482 53.4912 120.489 53.4975 120.495 53.5007C120.283 53.5545 120.077 53.6051 119.878 53.6525C119.103 53.8424 118.435 54.0069 117.793 54.2694C115.955 55.0255 113.665 55.9682 112.871 58.2966C112.118 60.5015 113.159 62.6116 115.886 64.399C116.797 64.9969 117.784 65.4999 118.739 65.9902C119.008 66.1262 119.277 66.2654 119.539 66.4015C119.236 66.5438 118.932 66.683 118.632 66.8191C117.626 67.2746 116.588 67.7491 115.645 68.328C114.241 69.1917 113.276 70.5583 113.004 72.0768C112.751 73.4846 113.095 74.8828 113.978 76.009C115.645 78.1412 117.863 79.5743 120.574 80.2671C121.83 80.5898 123.079 80.7037 124.323 80.7037C126.012 80.7037 127.686 80.4886 129.327 80.2766L129.568 80.245C129.884 80.2038 130.197 80.1342 130.501 80.0362L130.545 80.0298C130.59 80.0235 130.634 80.0172 130.678 80.0109C134.535 79.3465 137.201 77.0783 138.192 73.6269C139.378 69.4954 136.363 67.3568 132.997 65.579C133.326 65.4176 133.649 65.2658 133.968 65.1108C135.003 64.6172 135.977 64.1491 136.907 63.6049C139.017 62.368 140.121 60.53 140.023 58.4231C139.906 55.9208 138.448 53.9056 135.696 52.4346C135.452 52.3049 135.221 52.1372 134.949 51.9411C134.943 51.9348 134.936 51.9316 134.93 51.9253C135.142 51.8683 135.344 51.8177 135.544 51.7671C136.316 51.571 136.983 51.4001 137.619 51.1312C138.6 50.7168 139.549 50.2961 140.384 49.7235L140.773 49.5969C141.023 51.1312 141.282 52.6276 141.627 54.0923C142.023 55.7721 142.633 57.4171 143.395 58.8502C144.196 60.3529 145.167 61.2355 146.363 61.5487C147.556 61.8587 148.821 61.5645 150.235 60.6502C150.501 60.4794 150.766 60.2864 151.061 60.0523C151.061 60.0903 151.061 60.1282 151.061 60.1662C150.959 67.3632 153.762 72.5545 159.393 75.6009C160.94 76.4361 162.478 76.8632 163.965 76.8632C165.043 76.8632 166.062 76.6354 166.992 76.1862C169.608 74.9208 172.965 73.1524 175.727 70.6975C177.419 69.1917 178.105 66.5375 177.514 63.7663L177.511 63.7599ZM138.922 34.3963C142.529 30.5242 141.415 24.6464 138.714 20.537C138.258 19.8442 138.615 19.2558 139.061 18.9647C139.299 18.8097 139.577 18.718 139.859 18.718C140.241 18.718 140.627 18.8888 140.893 19.2937C143.987 23.9947 145.24 31.2866 140.684 36.1805C140.143 36.7626 139.463 36.6139 139.033 36.2122C138.568 35.7788 138.337 35.0258 138.925 34.3931L138.922 34.3963Z" fill="#BAD4FF"/>
<path d="M52.0523 12.5112V12.4795L52.0428 12.4289C52.0302 12.3878 52.0207 12.3467 52.0112 12.3055C51.9353 11.6728 51.8056 10.9769 51.6189 10.2556C51.1792 8.54414 50.5465 7.13005 49.9676 6.44041C48.9078 4.94407 47.402 4.19116 45.8835 4.52332C44.2322 4.88396 42.7105 6.83268 42.1316 9.18C42.0335 8.86998 41.9291 8.55363 41.8184 8.23412C40.6479 4.85866 37.845 2.88462 34.9979 3.43191C32.5398 3.90327 30.3286 6.67451 29.7971 9.79689C29.4776 9.16419 29.0568 8.60424 28.6709 8.08859C28.5127 7.87663 28.3545 7.66784 28.2153 7.46538C26.0388 4.343 21.7808 2.4797 19.1677 2.70431C19.1424 2.70431 19.1203 2.70747 19.0981 2.71063C16.2446 2.25825 13.4955 2.97321 10.835 3.66285L10.6136 3.71979C10.1391 3.84317 9.68986 4.03931 9.28176 4.29872C5.96958 5.57677 3.75196 8.40811 3.03384 12.2676C2.08796 17.3513 5.28309 19.6923 8.76611 21.5873C8.40547 21.8372 8.05116 22.0744 7.70317 22.3117C6.70034 22.9887 5.75445 23.6309 4.85602 24.3617C2.84403 26.0067 1.85385 28.2907 2.06897 30.7931C2.32205 33.7256 3.82472 36.0034 6.539 37.5661C6.29225 37.6674 6.0708 37.7623 5.85568 37.8572C1.67986 39.6793 -0.66113 43.678 0.164544 47.5881C0.737138 50.2961 3.28376 52.8585 6.46308 53.9847C4.6156 54.9749 3.16355 56.5282 2.25246 58.499C1.75895 59.3627 1.44576 60.3528 1.34137 61.3367L1.33188 61.3778C1.32555 61.4 1.32238 61.4221 1.31922 61.4443C0.458748 66.0661 3.00537 68.3913 5.98856 70.1597C4.31506 71.4884 3.3154 73.7914 3.29958 76.2463C3.17304 78.6031 4.96041 80.517 8.29791 81.2984C11.0976 81.9533 17.2127 81.4629 20.6387 80.2829C20.7779 80.2386 20.9203 80.188 21.069 80.1342C24.514 78.8878 25.6782 77.7933 26.1401 76.7746H26.1527C26.1622 76.7398 26.1749 76.705 26.1844 76.6702C26.2919 76.4076 26.3584 76.1482 26.409 75.8951C26.6842 74.8955 26.9183 73.7598 26.7886 72.8171C26.4691 70.4666 22.0085 68.695 20.1168 67.9548C21.9674 66.4078 26.0515 63.7821 26.5292 61.0773C26.9088 58.9134 26.8867 56.1454 23.546 53.5798C24.261 53.6019 24.9221 53.5924 25.5453 53.5481L29.0821 53.3077C32.2899 53.0894 35.3649 52.3998 38.2247 51.2546C38.4081 51.1818 38.5948 51.1059 38.7751 51.03C42.9699 49.2837 45.3457 45.3831 44.5548 41.5458C43.8082 37.9299 39.6609 34.8265 35.3111 34.6241C35.232 34.6209 35.1497 34.6146 35.0706 34.6051C33.4857 34.4501 31.7774 34.4153 29.854 34.5039C28.1805 34.4184 26.3489 34.4532 24.2641 34.6146C24.6501 33.8142 24.3685 32.6152 23.7833 31.7738C23.0746 30.7551 22.3502 30.1066 21.3885 29.3347C25.4251 27.6074 28.8069 24.4154 30.0502 21.2235C30.0945 21.3026 30.1324 21.3785 30.1799 21.4576C30.4772 22.4699 30.7303 23.3145 31.0277 24.1687C32.1982 27.5441 35.001 29.5182 37.8482 28.9709C40.1006 28.5375 42.1759 26.1427 42.8971 23.2987C42.8971 23.305 42.9003 23.3114 42.9035 23.3177L43.0205 22.5996C43.9633 25.2538 45.9816 26.7817 48.0284 26.3325C49.5943 25.9909 51.0305 24.2414 51.6759 22.0903C52.1029 21.0811 52.394 19.0058 52.394 16.6111C52.394 15.0293 52.2675 13.5868 52.0555 12.4985L52.0523 12.5112Z" fill="#FFFFB0"/>
<path d="M79.4544 55.8801C78.9546 55.7788 78.6192 55.124 78.5813 54.4027C78.0941 45.2475 79.4038 35.8488 81.1943 26.8802C81.4885 25.0296 81.7891 23.1789 82.0991 21.3346C83.5322 12.771 81.2797 7.19691 75.0919 5.14063C68.882 3.07486 61.7957 4.84642 58.2747 10.3857C57.3162 11.8947 56.7088 13.6378 56.4146 15.4536C54.3267 28.2247 52.5551 41.1824 52.2166 54.1243C51.9509 64.3235 55.9021 73.6431 65.3642 78.3251C81.0678 86.0947 101.548 79.4007 102.959 54.0484C103.538 43.6278 106.36 34.4125 111.238 25.7034C115.196 18.6393 114.069 10.4869 108.786 6.3301C105.787 3.97329 101.27 3.4956 97.2839 4.76733C97.1226 4.81478 96.9581 4.8654 96.7841 4.9255C89.5744 7.44049 86.5375 15.4505 85.5663 18.7658C85.5663 18.7658 85.5663 18.7722 85.5631 18.7753C85.5473 18.8291 85.5346 18.8829 85.5188 18.9367C85.4967 19.0094 85.4777 19.079 85.4619 19.1455C82.2003 30.4645 80.3876 43.7037 80.9634 54.5198C81.0172 55.5511 80.1852 56.0224 79.467 55.8864" fill="#FF7B65"/>
<path d="M17.2725 88.625H10.7114V154.423H17.2725V88.625Z" fill="white"/>
<path d="M54.5798 112.092H47.9111V154.388H54.5798V112.092Z" fill="white"/>
<path d="M51.1917 95.3379C49.8757 95.3379 48.7875 95.7839 47.8669 96.7045C46.9463 97.6251 46.5002 98.7481 46.5002 100.137C46.5002 101.526 46.9495 102.566 47.8732 103.522C48.7906 104.474 49.8757 104.936 51.1885 104.936C52.6438 104.936 53.7795 104.474 54.6621 103.528C55.5542 102.57 55.9876 101.462 55.9876 100.137C55.9876 98.745 55.5573 97.6219 54.6684 96.6982C53.7858 95.7839 52.6469 95.3379 51.1885 95.3379H51.1917Z" fill="white"/>
<path d="M111.687 90.0295C109.669 89.09 107.293 88.6123 104.636 88.6123C101.197 88.6123 98.0875 89.3747 95.3922 90.8805C92.7032 92.3832 90.5773 94.4901 89.0778 97.1411C87.5751 99.7985 86.8127 102.889 86.8127 106.328V112.696H76.332V118.498H86.8127V154.562H93.4814V118.498H111.991V112.696H93.4814V106.546C93.4814 102.883 94.4589 99.9725 96.3855 97.8909C98.3247 95.7998 101.099 94.74 104.633 94.74C106.36 94.74 107.907 95.0279 109.232 95.5973C110.283 96.0465 111.311 96.7109 112.292 97.565L112.665 97.8909L116.926 93.6296L116.515 93.2563C115.034 91.9182 113.411 90.8331 111.691 90.0295H111.687Z" fill="white"/>
<path d="M164.157 117.318C162.291 113.946 159.7 111.273 156.457 109.371C153.215 107.473 149.441 106.508 145.246 106.508C140.782 106.508 136.692 107.571 133.085 109.672C129.476 111.772 126.581 114.683 124.484 118.321C122.383 121.959 121.32 126.103 121.32 130.633C121.32 135.163 122.402 139.425 124.534 143.094C126.667 146.767 129.609 149.696 133.285 151.794C136.958 153.894 141.184 154.957 145.85 154.957C149.523 154.957 153.003 154.242 156.188 152.831C159.051 151.563 161.541 149.801 163.588 147.593L164.104 147.039L159.972 142.816L159.406 143.43C157.865 145.1 156.027 146.403 153.949 147.299C151.532 148.339 148.843 148.868 145.955 148.868C142.396 148.868 139.21 148.083 136.486 146.536C133.759 144.986 131.608 142.803 130.096 140.041C129.004 138.052 128.296 135.802 127.992 133.357L127.957 133.072H166.539L166.66 132.421C166.764 131.845 166.84 131.32 166.884 130.855C166.951 130.149 166.982 129.551 166.982 129.029C166.982 124.632 166.036 120.69 164.167 117.312L164.157 117.318ZM145.043 112.497C148.337 112.497 151.187 113.199 153.515 114.582C155.844 115.967 157.659 117.951 158.909 120.481C159.883 122.456 160.462 124.755 160.633 127.321L160.652 127.59H127.961L127.998 127.305C128.302 124.967 128.97 122.835 129.982 120.972C131.431 118.311 133.462 116.211 136.021 114.727C138.58 113.247 141.614 112.497 145.04 112.497H145.043Z" fill="white"/>
</svg>
